# xmcd
#
# Track frame offsets: 
#        150
#        28934
#        55408
#        78913
#        107100
#        138885
#        159382
#        184972
#        215487
#        230628
#        269197
#
# Disc length: 3643 seconds
#
# Revision: 2
# Processed by: cddbd v1.5.2PL0 Copyright (c) Steve Scherf et al.
# Submitted via: ExactAudioCopy v0.99pb3
#
DISCID=a20e390b
DTITLE=Christophe Goze - Show Me The Way
DYEAR=2002
DGENRE=Electronic
TTITLE0=About Us
TTITLE1=Show Me The Way
TTITLE2=Ina
TTITLE3=Manana
TTITLE4=Barcelona
TTITLE5=Missing You
TTITLE6=Dream
TTITLE7=Something Like This
TTITLE8=Fading
TTITLE9=Thank You
TTITLE10=Data Track
EXTD=
EXTT0=
EXTT1=
EXTT2=
EXTT3=
EXTT4=
EXTT5=
EXTT6=
EXTT7=
EXTT8=
EXTT9=
EXTT10=
PLAYORDER=
